<svg width="1024" height="1024" viewBox="0 0 1024 1024" fill="none" xmlns="http://www.w3.org/2000/svg">
<rect width="1024" height="1024" rx="150" fill="#3D3D3D"/>
<path d="M761.345 601.706C756.641 666.729 732.569 717.917 689.128 755.271C645.964 792.624 588.965 811.301 518.132 811.301C440.658 811.301 379.647 785.292 335.1 733.273C290.829 680.979 268.693 609.315 268.693 518.283V481.345C268.693 423.239 278.931 372.051 299.406 327.78C319.882 283.509 349.073 249.615 386.979 226.096C425.163 202.3 469.434 190.402 519.792 190.402C589.519 190.402 645.687 209.079 688.298 246.433C730.909 283.786 755.534 336.219 762.175 403.732H637.663C634.619 364.719 623.69 336.496 604.875 319.064C586.337 301.356 557.976 292.502 519.792 292.502C478.288 292.502 447.16 307.443 426.408 337.326C405.933 366.932 395.419 413.002 394.865 475.534V521.188C394.865 586.488 404.688 634.217 424.333 664.377C444.255 694.536 475.521 709.616 518.132 709.616C556.592 709.616 585.23 700.9 604.045 683.469C623.137 665.76 634.066 638.506 636.833 601.706H761.345Z" fill="white"/>
</svg>
